<?xml version="1.0" encoding="UTF-8" standalone="no"?>
<svg
   xmlns:dc="http://purl.org/dc/elements/1.1/"
   xmlns:cc="http://creativecommons.org/ns#"
   xmlns:rdf="http://www.w3.org/1999/02/22-rdf-syntax-ns#"
   xmlns:svg="http://www.w3.org/2000/svg"
   xmlns="http://www.w3.org/2000/svg"
   xmlns:sodipodi="http://sodipodi.sourceforge.net/DTD/sodipodi-0.dtd"
   xmlns:inkscape="http://www.inkscape.org/namespaces/inkscape"
   width="232.84"
   height="131.06"
   version="1.1"
   viewBox="0 0 61.606 34.677"
   id="svg1446"
   sodipodi:docname="IEEElogo.svg"
   inkscape:version="0.92.4 (5da689c313, 2019-01-14)">
  <metadata
     id="metadata1452">
    <rdf:RDF>
      <cc:Work
         rdf:about="">
        <dc:format>image/svg+xml</dc:format>
        <dc:type
           rdf:resource="http://purl.org/dc/dcmitype/StillImage" />
        <dc:title></dc:title>
      </cc:Work>
    </rdf:RDF>
  </metadata>
  <defs
     id="defs1450" />
  <sodipodi:namedview
     pagecolor="#ffffff"
     bordercolor="#666666"
     borderopacity="1"
     objecttolerance="10"
     gridtolerance="10"
     guidetolerance="10"
     inkscape:pageopacity="0"
     inkscape:pageshadow="2"
     inkscape:window-width="1920"
     inkscape:window-height="1027"
     id="namedview1448"
     showgrid="false"
     inkscape:zoom="4.8788869"
     inkscape:cx="30.208689"
     inkscape:cy="75.557238"
     inkscape:window-x="-8"
     inkscape:window-y="-8"
     inkscape:window-maximized="1"
     inkscape:current-layer="svg1446" />
  <path
     style="fill:#0a70a3"
     inkscape:connector-curvature="0"
     id="path1440"
     d="m 8.55,2.65 c 0.59945,-0.46578 1.3519,-0.07854 1.8548,0.35002 0.52641,0.40239 1.0762,0.85852 1.5572,1.3257 l 0.0882,0.04961 c 1.3339,1.2389 2.5742,2.6141 3.5926,4.0693 0.16398,0.25356 0.31006,0.54019 0.21773,0.87643 -0.339,0.84887 -1.0294,1.5255 -1.6316,2.2655 -1.305,1.4056 -2.6817,2.7643 -4.2237,3.8489 -0.31143,0.22049 -0.73174,0.42306 -1.1052,0.24942 -1.1341,-0.59393 -2.0905,-1.5668 -3.084,-2.4529 -1.1507,-1.068 -2.3068,-2.311 -3.1791,-3.6118 C 2.5074,9.43828 2.47019,9.21228 2.47432,8.9725 2.58732,8.52326 2.89325,8.15395 3.18539,7.775 4.21619,6.4617 5.47849,5.2146 6.75449,4.0763 6.78479,4.04737 6.83859,3.98535 6.8854,3.95503 7.43249,3.48099 7.9768,3.06206 8.5501,2.65003 M 10.3043,1.28303 9.62768,0.32254 C 9.54358,0.27293 9.44027,0.18887 9.34932,0.16406 9.1495,0.07724 8.93315,0.18198 8.77054,0.306 l -1.2251,1.5958 c -1.9665,2.435 -4.294,4.7088 -6.8337,6.452 -0.19981,0.1571 -0.49885,0.31006 -0.56086,0.56913 -0.0661,0.23151 0.0551,0.42444 0.19844,0.56775 2.034,1.4015 3.9784,3.0634 5.7078,4.9596 0.30731,0.32384 0.55673,0.64354 0.85714,0.94671 0.50574,0.67386 1.1011,1.3519 1.5654,2.0753 0.14608,0.15296 0.17088,0.40238 0.39964,0.4768 0.17776,0.06201 0.39825,0.10473 0.56913,0 l 0.16949,-0.1695 c 2.1043,-2.9807 4.7722,-5.6568 7.7528,-7.8176 0.29903,-0.26734 0.86816,-0.36656 0.87643,-0.86128 -0.0207,-0.22738 -0.15296,-0.45338 -0.35002,-0.5774 l -0.0482,-0.0083 c -1.5338,-1.0432 -2.9642,-2.2242 -4.3105,-3.5622 l -1.4883,-1.5544 c -0.60358,-0.66835 -1.1879,-1.4097 -1.746,-2.1153 m -1.5338,1.7336 c 0.61185,-0.41617 1.1603,0.16536 1.6344,0.49885 1.8328,1.4745 3.5622,3.1626 4.8783,5.0698 0.16674,0.24529 0.24116,0.62701 0.0937,0.90537 -0.34314,0.57051 -0.8034,1.09 -1.2402,1.6192 v 0.02755 c -1.09,1.1603 -2.2393,2.3523 -3.4837,3.3335 -0.60634,0.37069 -1.1631,1.1768 -1.9444,0.67661 -1.779,-1.3009 -3.4823,-2.9173 -4.9251,-4.6509 C 3.53804,10.11497 3.15632,9.80354 2.98545,9.37079 2.74842,8.78513 3.27208,8.36479 3.57111,7.92389 c 1.4718,-1.8149 3.3004,-3.5953 5.1993,-4.9072 M 9.15626,4.21279 8.9909,4.74471 8.15994,7.12731 c 0.20808,0.02067 0.46578,0 0.66973,0.02067 v 0.0193 L 8.7084,9.86138 8.7291,9.89031 C 8.99506,9.91511 9.32717,9.9289 9.59864,9.88201 V 9.83929 L 9.48978,7.22789 9.50628,7.13969 10.23802,7.12727 C 9.87284,6.16264 9.51868,5.18837 9.17832,4.21267 Z m -2.8291,3.7317 c -0.46578,0.23427 -1.152,0.58704 -1.0762,1.2265 0.0992,0.34864 0.47818,0.57464 0.77721,0.71934 1.6536,0.7276 3.8489,0.75241 5.5948,0.20946 0.43133,-0.16674 1.0101,-0.4079 1.0886,-0.93569 -0.004,-0.43684 -0.46578,-0.71107 -0.79788,-0.87781 V 8.26562 C 12.02944,8.21876 12.16173,8.1788 12.28162,8.16502 V 8.15401 c -0.58429,-0.10473 -1.1493,-0.25769 -1.7157,-0.4079 0.10887,0.24942 0.18742,0.51125 0.27837,0.76894 0.17087,-0.05374 0.34589,-0.09508 0.52916,-0.11989 0.29904,0.11575 0.72623,0.2825 0.76895,0.65594 0.0331,0.34865 -0.35002,0.51952 -0.59118,0.66008 -1.2802,0.46578 -2.7216,0.51125 -4.0569,0.15847 C 7.125,9.75252 6.59308,9.60369 6.5476,9.13378 6.80943,8.51504 7.48605,8.38688 8.0524,8.23668 7.76164,8.04927 7.46536,7.88252 7.18424,7.67444 6.87969,7.69236 6.60133,7.82465 6.3271,7.94454 m 2.3647,2.6858 c -0.0496,0.95636 -0.062,1.8411 -0.13229,2.8015 0.37758,0.03305 0.80615,0.06615 1.2085,0.0083 l -0.11989,-2.6734 -0.0207,-0.12678 c -0.30868,0.01101 -0.59944,0.02342 -0.93569,-0.0096" />
</svg>
