<svg id="svg" xmlns="http://www.w3.org/2000/svg" xmlns:xlink="http://www.w3.org/1999/xlink" width="400" height="394.4055944055944" viewBox="0, 0, 400,394.4055944055944"><g id="svgg"><path id="path0" d="M192.308 1.620 C 190.769 2.407,182.315 12.499,173.520 24.045 C 131.799 78.821,76.788 133.677,28.829 168.330 C -9.886 196.304,-9.856 195.957,24.379 221.495 C 87.796 268.802,150.517 332.420,182.869 382.248 C 194.959 400.869,201.621 399.734,219.517 376.005 C 268.325 311.290,344.285 237.874,390.368 210.879 C 397.750 206.555,400.751 201.010,399.296 194.386 C 398.277 189.744,397.358 188.950,369.231 168.374 C 317.217 130.327,254.380 66.651,218.257 15.385 C 207.511 0.134,201.473 -3.068,192.308 1.620 M211.888 55.056 C 243.172 69.732,338.804 168.975,345.689 193.908 C 351.971 216.661,228.853 342.657,200.337 342.657 C 175.562 342.657,53.833 223.304,52.884 198.083 C 52.177 179.258,135.520 90.497,185.124 57.246 C 194.960 50.653,201.382 50.127,211.888 55.056 M178.771 70.841 C 123.900 111.518,61.538 178.736,61.538 197.203 C 61.538 213.658,116.505 274.705,169.161 316.731 C 198.925 340.487,200.827 340.608,227.273 320.434 C 278.853 281.086,339.935 212.640,338.088 196.259 C 336.049 178.164,279.936 116.293,228.050 74.929 C 204.154 55.879,199.477 55.491,178.771 70.841 M220.979 153.361 C 220.979 153.628,217.465 153.846,213.170 153.846 L 205.361 153.846 206.238 179.371 C 206.720 193.409,207.415 206.859,207.783 209.260 C 208.552 214.291,203.761 216.217,194.705 214.518 L 189.918 213.620 190.867 186.181 C 191.389 171.089,192.117 157.672,192.483 156.366 C 193.041 154.378,191.931 153.921,185.689 153.568 L 178.228 153.147 188.726 122.935 L 199.224 92.723 210.101 122.799 C 216.084 139.341,220.979 153.094,220.979 153.361 M164.695 180.434 C 144.750 186.634,135.552 198.490,144.406 206.586 C 166.644 226.920,255.337 223.123,264.314 201.452 C 268.390 191.612,256.519 180.698,243.426 182.249 L 236.679 183.048 234.275 176.754 C 231.370 169.146,231.556 168.890,238.540 170.870 C 241.574 171.730,248.776 173.544,254.545 174.901 C 260.315 176.258,263.619 177.426,261.888 177.495 C 257.094 177.689,258.072 179.515,265.573 184.375 C 314.274 215.933,190.045 243.153,130.539 213.962 C 104.018 200.952,110.206 182.052,144.965 169.907 L 154.108 166.712 163.078 172.430 L 172.047 178.148 164.695 180.434 M208.906 237.413 C 209.324 240.297,210.073 253.744,210.570 267.295 L 211.474 291.933 207.598 292.906 C 200.734 294.629,185.825 292.350,186.577 289.693 C 186.932 288.439,187.657 274.983,188.188 259.790 L 189.152 232.168 198.649 232.168 L 208.146 232.168 208.906 237.413 " stroke="none" fill="#000000" fill-rule="evenodd"></path></g></svg>